<svg width="32" height="30" viewBox="0 0 32 30" fill="none" xmlns="http://www.w3.org/2000/svg">
<rect width="32" height="29.7379" rx="8" fill="#26B8A3"/>
<path d="M22 13H18V9C18 8.46957 17.7893 7.96086 17.4142 7.58579C17.0391 7.21071 16.5304 7 16 7C15.4696 7 14.9609 7.21071 14.5858 7.58579C14.2107 7.96086 14 8.46957 14 9L14.071 13H10C9.46957 13 8.96086 13.2107 8.58579 13.5858C8.21071 13.9609 8 14.4696 8 15C8 15.5304 8.21071 16.0391 8.58579 16.4142C8.96086 16.7893 9.46957 17 10 17L14.071 16.929L14 21C14 21.5304 14.2107 22.0391 14.5858 22.4142C14.9609 22.7893 15.4696 23 16 23C16.5304 23 17.0391 22.7893 17.4142 22.4142C17.7893 22.0391 18 21.5304 18 21V16.929L22 17C22.5304 17 23.0391 16.7893 23.4142 16.4142C23.7893 16.0391 24 15.5304 24 15C24 14.4696 23.7893 13.9609 23.4142 13.5858C23.0391 13.2107 22.5304 13 22 13Z" fill="white"/>
</svg>
