<svg width="24" height="24" viewBox="0 0 24 24" fill="none" xmlns="http://www.w3.org/2000/svg">
<path d="M10.44 2.976C11.4414 2.57538 12.5586 2.57538 13.56 2.976L20.4684 5.7408C21.1524 6.0132 21.6 6.6756 21.6 7.4112V12.3072C20.4185 11.3306 18.9329 10.7975 17.4 10.8C16.5009 10.7986 15.6111 10.9815 14.7855 11.3376C13.9599 11.6936 13.2161 12.2152 12.6 12.87V10.59L17.6436 8.3484C17.7156 8.31641 17.7807 8.27055 17.8349 8.21343C17.8892 8.15632 17.9318 8.08907 17.9601 8.01552C17.9884 7.94198 18.0019 7.86358 17.9999 7.78481C17.9979 7.70603 17.9804 7.62842 17.9484 7.5564C17.9164 7.48438 17.8706 7.41937 17.8135 7.36508C17.7563 7.31078 17.6891 7.26827 17.6156 7.23997C17.542 7.21167 17.4636 7.19813 17.3848 7.20012C17.3061 7.20212 17.2284 7.21961 17.1564 7.2516L12 9.5424L6.84363 7.2504C6.69818 7.18579 6.53303 7.18161 6.3845 7.23877C6.23597 7.29593 6.11623 7.40975 6.05163 7.5552C5.98702 7.70064 5.98284 7.8658 6.04 8.01432C6.09716 8.16285 6.21098 8.28259 6.35643 8.3472L11.4 10.5888V14.646C11.0041 15.5101 10.7994 16.4495 10.8 17.4C10.8 18.8688 11.28 20.226 12.0912 21.3216C11.5262 21.3337 10.9646 21.2317 10.44 21.0216L3.53163 18.2592C3.19735 18.1255 2.91084 17.8947 2.70911 17.5965C2.50739 17.2983 2.39972 16.9464 2.40003 16.5864V7.4112C2.4002 7.05159 2.5081 6.70027 2.70979 6.40255C2.91148 6.10482 3.19773 5.87433 3.53163 5.7408L10.44 2.976ZM20.4 21.888C19.8106 22.2884 19.1477 22.5682 18.4496 22.7112C17.7515 22.8542 17.0319 22.8577 16.3325 22.7213C15.6331 22.5849 14.9675 22.3115 14.3743 21.9167C13.781 21.522 13.2718 21.0137 12.8759 20.4212C12.48 19.8287 12.2052 19.1636 12.0675 18.4645C11.9299 17.7653 11.9319 17.0458 12.0736 16.3474C12.2153 15.649 12.4938 14.9856 12.8931 14.3954C13.2924 13.8051 13.8045 13.2998 14.4 12.9084C15.591 12.1127 17.0492 11.8228 18.4539 12.1023C19.8586 12.3818 21.0948 13.2079 21.8904 14.3988C22.6861 15.5897 22.976 17.0479 22.6965 18.4527C22.417 19.8574 21.591 21.0923 20.4 21.888ZM17.8248 14.5764C17.741 14.4923 17.6341 14.4351 17.5177 14.4118C17.4013 14.3885 17.2805 14.4003 17.1708 14.4456C17.0611 14.491 16.9673 14.5679 16.9013 14.6665C16.8353 14.7652 16.8001 14.8813 16.8 15V16.8H15C14.8409 16.8 14.6883 16.8632 14.5758 16.9757C14.4632 17.0883 14.4 17.2409 14.4 17.4C14.4 17.5591 14.4632 17.7117 14.5758 17.8243C14.6883 17.9368 14.8409 18 15 18H16.8V19.8C16.8 19.9591 16.8632 20.1117 16.9758 20.2243C17.0883 20.3368 17.2409 20.4 17.4 20.4C17.5592 20.4 17.7118 20.3368 17.8243 20.2243C17.9368 20.1117 18 19.9591 18 19.8V18H19.8C19.9592 18 20.1118 17.9368 20.2243 17.8243C20.3368 17.7117 20.4 17.5591 20.4 17.4C20.4 17.2409 20.3368 17.0883 20.2243 16.9757C20.1118 16.8632 19.9592 16.8 19.8 16.8H18V15C18.0002 14.9212 17.9848 14.8431 17.9547 14.7702C17.9246 14.6973 17.8805 14.631 17.8248 14.5752" fill="black"/>
</svg>
