<svg width="24" height="24" viewBox="0 0 24 24" fill="none" xmlns="http://www.w3.org/2000/svg">
<path d="M19.62 2.72494H4.39004C3.76319 2.7196 3.15975 2.96283 2.71182 3.40139C2.26389 3.83995 2.00795 4.43811 2.00004 5.06494V7.18494C1.9941 7.69149 2.14995 8.18673 2.44491 8.5986C2.73987 9.01046 3.15855 9.31746 3.64004 9.47494V17.3349C3.6407 17.8552 3.74544 18.37 3.94809 18.8492C4.15074 19.3283 4.44721 19.7621 4.82004 20.1249C5.57409 20.8676 6.59172 21.2811 7.65004 21.2749H16.36C17.147 21.2791 17.9177 21.0511 18.5756 20.6194C19.2336 20.1877 19.7496 19.5715 20.059 18.8479C20.261 18.3689 20.367 17.8549 20.37 17.3349V9.47494C20.8415 9.3184 21.2522 9.01824 21.5445 8.61654C21.8368 8.21483 21.9961 7.73173 22 7.23494V5.11494C22.004 4.80081 21.9453 4.48905 21.8272 4.19793C21.7092 3.90681 21.5342 3.64219 21.3125 3.41958C21.0908 3.19698 20.8269 3.02087 20.5363 2.90159C20.2457 2.78231 19.9342 2.72225 19.62 2.72494ZM14.54 15.3849H12.79V17.1249C12.79 17.3239 12.711 17.5146 12.5704 17.6553C12.4297 17.7959 12.239 17.8749 12.04 17.8749C11.8411 17.8749 11.6504 17.7959 11.5097 17.6553C11.3691 17.5146 11.29 17.3239 11.29 17.1249V15.3849H9.54004C9.34113 15.3849 9.15036 15.3059 9.00971 15.1653C8.86906 15.0246 8.79004 14.8339 8.79004 14.6349C8.79004 14.436 8.86906 14.2453 9.00971 14.1046C9.15036 13.964 9.34113 13.8849 9.54004 13.8849H11.29V12.1249C11.29 11.926 11.3691 11.7353 11.5097 11.5946C11.6504 11.454 11.8411 11.3749 12.04 11.3749C12.239 11.3749 12.4297 11.454 12.5704 11.5946C12.711 11.7353 12.79 11.926 12.79 12.1249V13.8849H14.54C14.739 13.8849 14.9297 13.964 15.0704 14.1046C15.211 14.2453 15.29 14.436 15.29 14.6349C15.29 14.8339 15.211 15.0246 15.0704 15.1653C14.9297 15.3059 14.739 15.3849 14.54 15.3849ZM20.54 7.18494C20.5387 7.29874 20.5149 7.41114 20.4698 7.51565C20.4248 7.62015 20.3594 7.71467 20.2776 7.79374C20.1957 7.8728 20.099 7.93483 19.993 7.97624C19.887 8.01764 19.7738 8.03759 19.66 8.03494H4.39004C4.27578 8.0376 4.16212 8.01771 4.05555 7.97643C3.94898 7.93515 3.85159 7.87327 3.76894 7.79433C3.68628 7.7154 3.62 7.62095 3.57386 7.51639C3.52772 7.41183 3.50264 7.2992 3.50004 7.18494V5.06494C3.50262 4.95113 3.52777 4.83896 3.57403 4.73494C3.62029 4.63092 3.68674 4.53712 3.76953 4.45898C3.85232 4.38084 3.9498 4.31992 4.05632 4.27974C4.16284 4.23957 4.27627 4.22094 4.39004 4.22494H19.62C19.7333 4.22093 19.8463 4.23962 19.9522 4.27992C20.0582 4.32021 20.155 4.38129 20.237 4.45956C20.319 4.53783 20.3845 4.63171 20.4297 4.73567C20.4749 4.83964 20.4988 4.95159 20.5 5.06494L20.54 7.18494Z" fill="black"/>
</svg>
