<svg width="24" height="24" viewBox="0 0 24 24" fill="none" xmlns="http://www.w3.org/2000/svg">
<path d="M21.6072 4.83964C21.6063 4.20644 21.3552 3.59926 20.9085 3.1504C20.4619 2.70153 19.856 2.44736 19.2228 2.44324L13.3548 2.40484C13.0374 2.40269 12.7228 2.46353 12.429 2.58382C12.1353 2.70411 11.8684 2.88148 11.6436 3.10564L3.62403 11.1024C3.40073 11.3252 3.22352 11.5897 3.10254 11.881C2.98156 12.1723 2.91917 12.4845 2.91895 12.7999C2.91872 13.1153 2.98067 13.4277 3.10124 13.7191C3.22181 14.0106 3.39865 14.2754 3.62163 14.4984L9.56043 20.4384C9.86112 20.7389 10.2362 20.9541 10.6474 21.0621C11.0585 21.17 11.4909 21.1668 11.9004 21.0528C11.0446 19.7656 10.6677 18.2189 10.8355 16.6822C11.0032 15.1456 11.7051 13.7166 12.8185 12.6444C13.932 11.5722 15.3865 10.9248 16.9283 10.8152C18.4702 10.7056 20.0017 11.1406 21.2556 12.0444C21.4906 11.6645 21.6149 11.2264 21.6144 10.7796L21.6072 4.83964ZM16.7988 8.40004C16.4806 8.40004 16.1754 8.27361 15.9503 8.04857C15.7253 7.82352 15.5988 7.5183 15.5988 7.20004C15.5988 6.88178 15.7253 6.57656 15.9503 6.35151C16.1754 6.12647 16.4806 6.00004 16.7988 6.00004C17.1171 6.00004 17.4223 6.12647 17.6474 6.35151C17.8724 6.57656 17.9988 6.88178 17.9988 7.20004C17.9988 7.5183 17.8724 7.82352 17.6474 8.04857C17.4223 8.27361 17.1171 8.40004 16.7988 8.40004ZM22.8 17.4C22.8 18.8322 22.2311 20.2057 21.2184 21.2184C20.2057 22.2311 18.8322 22.8 17.4 22.8C15.9679 22.8 14.5944 22.2311 13.5817 21.2184C12.569 20.2057 12 18.8322 12 17.4C12 15.9679 12.569 14.5944 13.5817 13.5817C14.5944 12.569 15.9679 12 17.4 12C18.8322 12 20.2057 12.569 21.2184 13.5817C22.2311 14.5944 22.8 15.9679 22.8 17.4ZM18 15C18 14.8409 17.9368 14.6883 17.8243 14.5758C17.7118 14.4633 17.5592 14.4 17.4 14.4C17.2409 14.4 17.0883 14.4633 16.9758 14.5758C16.8632 14.6883 16.8 14.8409 16.8 15V16.8H15C14.8409 16.8 14.6883 16.8633 14.5758 16.9758C14.4632 17.0883 14.4 17.2409 14.4 17.4C14.4 17.5592 14.4632 17.7118 14.5758 17.8243C14.6883 17.9368 14.8409 18 15 18H16.8V19.8C16.8 19.9592 16.8632 20.1118 16.9758 20.2243C17.0883 20.3368 17.2409 20.4 17.4 20.4C17.5592 20.4 17.7118 20.3368 17.8243 20.2243C17.9368 20.1118 18 19.9592 18 19.8V18H19.8C19.9592 18 20.1118 17.9368 20.2243 17.8243C20.3368 17.7118 20.4 17.5592 20.4 17.4C20.4 17.2409 20.3368 17.0883 20.2243 16.9758C20.1118 16.8633 19.9592 16.8 19.8 16.8H18V15Z" fill="black"/>
</svg>
