<svg width="26" height="25" viewBox="0 0 26 25" fill="none" xmlns="http://www.w3.org/2000/svg">
<path d="M8.78125 21.875C9.6442 21.875 10.3438 21.1754 10.3438 20.3125C10.3438 19.4496 9.6442 18.75 8.78125 18.75C7.91831 18.75 7.21875 19.4496 7.21875 20.3125C7.21875 21.1754 7.91831 21.875 8.78125 21.875Z" fill="#050505"/>
<path d="M19.7188 21.875C20.5817 21.875 21.2812 21.1754 21.2812 20.3125C21.2812 19.4496 20.5817 18.75 19.7188 18.75C18.8558 18.75 18.1562 19.4496 18.1562 20.3125C18.1562 21.1754 18.8558 21.875 19.7188 21.875Z" fill="#050505"/>
<path d="M22.4922 5.89746C22.3824 5.76321 22.2442 5.65508 22.0874 5.58092C21.9306 5.50677 21.7593 5.46845 21.5859 5.46875H6.7251L6.42578 3.77051C6.39387 3.58961 6.29923 3.42575 6.1585 3.3077C6.01777 3.18965 5.83994 3.12496 5.65625 3.125H2.53125C2.32405 3.125 2.12534 3.20731 1.97882 3.35382C1.83231 3.50034 1.75 3.69905 1.75 3.90625C1.75 4.11345 1.83231 4.31216 1.97882 4.45868C2.12534 4.60519 2.32405 4.6875 2.53125 4.6875H5.00098L7.23047 17.3232C7.26238 17.5041 7.35702 17.668 7.49775 17.7861C7.63848 17.9041 7.81631 17.9688 8 17.9688H20.5C20.7072 17.9688 20.9059 17.8864 21.0524 17.7399C21.1989 17.5934 21.2812 17.3947 21.2812 17.1875C21.2812 16.9803 21.1989 16.7816 21.0524 16.6351C20.9059 16.4886 20.7072 16.4062 20.5 16.4062H8.65527L8.37988 14.8438H20.1797C20.4506 14.8434 20.7131 14.7495 20.9227 14.5778C21.1324 14.4062 21.2763 14.1674 21.3301 13.9019L22.7363 6.87061C22.7702 6.70044 22.7659 6.52487 22.7237 6.35658C22.6814 6.18829 22.6024 6.03148 22.4922 5.89746Z" fill="#050505"/>
</svg>
