<svg width="22" height="22" viewBox="0 0 22 22" fill="none" xmlns="http://www.w3.org/2000/svg">
<path d="M5.92851 10.0329L10.9449 1.82416L15.9614 10.0329H5.92851ZM15.9614 20.0657C14.8213 20.0657 13.8523 19.6668 13.0546 18.8691C12.2568 18.0713 11.8576 17.1021 11.857 15.9614C11.8564 14.8207 12.2556 13.8517 13.0546 13.0546C13.8535 12.2574 14.8225 11.8582 15.9614 11.857C17.1002 11.8558 18.0695 12.255 18.8691 13.0546C19.6687 13.8542 20.0675 14.8231 20.0657 15.9614C20.0639 17.0996 19.665 18.0689 18.8691 18.8691C18.0731 19.6693 17.1039 20.0681 15.9614 20.0657ZM2.73624 19.6097V12.313H10.0329V19.6097H2.73624Z" fill="black"/>
</svg>
