<svg width="23" height="31" viewBox="0 0 23 31" fill="none" xmlns="http://www.w3.org/2000/svg">
<path d="M21.5625 4.33563H15.9375V2.72158C15.9375 2.00812 15.6906 1.32389 15.251 0.819401C14.8115 0.314913 14.2154 0.0314941 13.5938 0.0314941H8.90625C8.28465 0.0314941 7.68851 0.314913 7.24897 0.819401C6.80943 1.32389 6.5625 2.00812 6.5625 2.72158V4.33563H0.9375C0.68886 4.33563 0.450403 4.449 0.274588 4.65079C0.0987722 4.85259 0 5.12628 0 5.41166C0 5.69704 0.0987722 5.97074 0.274588 6.17253C0.450403 6.37433 0.68886 6.48769 0.9375 6.48769H1.93359L3.04688 26.9942C3.13008 28.7999 4.33594 30.1604 5.85938 30.1604H16.6406C18.1717 30.1604 19.3535 28.8302 19.4531 26.9996L20.5664 6.48769H21.5625C21.8111 6.48769 22.0496 6.37433 22.2254 6.17253C22.4012 5.97074 22.5 5.69704 22.5 5.41166C22.5 5.12628 22.4012 4.85259 22.2254 4.65079C22.0496 4.449 21.8111 4.33563 21.5625 4.33563ZM7.5334 25.8563H7.5C7.25704 25.8565 7.02351 25.7484 6.84862 25.5548C6.67374 25.3612 6.57116 25.0973 6.5625 24.8186L6.09375 9.75413C6.08489 9.46875 6.17517 9.19101 6.34472 8.98203C6.51427 8.77305 6.74921 8.64993 6.99785 8.63976C7.24649 8.62959 7.48847 8.73321 7.67055 8.92782C7.85263 9.12242 7.95989 9.39208 7.96875 9.67746L8.4375 24.7419C8.44197 24.8833 8.42211 25.0242 8.37908 25.1567C8.33605 25.2892 8.27068 25.4107 8.18671 25.5142C8.10274 25.6177 8.00182 25.7012 7.88972 25.7599C7.77762 25.8186 7.65654 25.8513 7.5334 25.8563ZM12.1875 24.7803C12.1875 25.0656 12.0887 25.3393 11.9129 25.5411C11.7371 25.7429 11.4986 25.8563 11.25 25.8563C11.0014 25.8563 10.7629 25.7429 10.5871 25.5411C10.4113 25.3393 10.3125 25.0656 10.3125 24.7803V9.71579C10.3125 9.43041 10.4113 9.15672 10.5871 8.95492C10.7629 8.75313 11.0014 8.63976 11.25 8.63976C11.4986 8.63976 11.7371 8.75313 11.9129 8.95492C12.0887 9.15672 12.1875 9.43041 12.1875 9.71579V24.7803ZM14.0625 4.33563H8.4375V2.72158C8.43679 2.6507 8.44844 2.58037 8.47174 2.51473C8.49505 2.44909 8.52955 2.38946 8.57322 2.33933C8.61689 2.28921 8.66884 2.24961 8.72603 2.22286C8.78323 2.19611 8.8445 2.18275 8.90625 2.18356H13.5938C13.6555 2.18275 13.7168 2.19611 13.774 2.22286C13.8312 2.24961 13.8831 2.28921 13.9268 2.33933C13.9705 2.38946 14.005 2.44909 14.0283 2.51473C14.0516 2.58037 14.0632 2.6507 14.0625 2.72158V4.33563ZM15.9375 24.8186C15.9288 25.0973 15.8263 25.3612 15.6514 25.5548C15.4765 25.7484 15.243 25.8565 15 25.8563H14.966C14.8429 25.8513 14.7219 25.8184 14.6099 25.7597C14.4978 25.701 14.397 25.6175 14.3131 25.514C14.2292 25.4105 14.1639 25.289 14.1209 25.1566C14.0779 25.0241 14.058 24.8832 14.0625 24.7419L14.5312 9.67746C14.5356 9.53615 14.5642 9.39722 14.6154 9.2686C14.6666 9.13997 14.7393 9.02418 14.8295 8.92782C14.9196 8.83146 15.0254 8.75642 15.1408 8.707C15.2563 8.65757 15.379 8.63473 15.5021 8.63976C15.6253 8.6448 15.7463 8.67761 15.8584 8.73634C15.9704 8.79506 16.0713 8.87855 16.1553 8.98203C16.2392 9.08551 16.3046 9.20695 16.3477 9.33943C16.3907 9.47191 16.4106 9.61282 16.4062 9.75413L15.9375 24.8186Z" fill="#FF4D4F"/>
</svg>
