<svg width="32" height="28" viewBox="0 0 32 28" fill="none" xmlns="http://www.w3.org/2000/svg">
<rect width="32" height="28" rx="8" fill="#007BFF"/>
<path fill-rule="evenodd" clip-rule="evenodd" d="M24.5255 7.58039C24.6112 7.71042 24.6494 7.86604 24.6336 8.02095C24.6178 8.17587 24.5491 8.3206 24.439 8.4307L16.1496 16.7191C16.0648 16.8039 15.959 16.8646 15.843 16.895L12.3904 17.7967C12.2763 17.8264 12.1563 17.8258 12.0425 17.7949C11.9287 17.764 11.8249 17.7039 11.7415 17.6205C11.6581 17.5371 11.598 17.4333 11.5671 17.3195C11.5362 17.2057 11.5356 17.0858 11.5653 16.9716L12.467 13.5199C12.494 13.4165 12.5436 13.3204 12.6122 13.2386L20.9322 4.92398C21.059 4.79733 21.2309 4.7262 21.4101 4.7262C21.5893 4.7262 21.7612 4.79733 21.888 4.92398L24.439 7.47399C24.4705 7.50721 24.4994 7.54278 24.5255 7.58039ZM23.0043 7.95189L21.4101 6.35858L13.7294 14.0393L13.1659 16.1971L15.3236 15.6335L23.0043 7.95189Z" fill="white"/>
<path d="M22.8898 18.17C23.1363 16.0635 23.215 13.9409 23.1252 11.822C23.1231 11.772 23.1313 11.7222 23.1495 11.6756C23.1677 11.6291 23.1953 11.5868 23.2307 11.5515L24.118 10.6642C24.1422 10.6398 24.173 10.623 24.2066 10.6156C24.2402 10.6083 24.2752 10.6109 24.3073 10.623C24.3395 10.635 24.3675 10.6562 24.388 10.6838C24.4085 10.7114 24.4205 10.7444 24.4227 10.7787C24.5893 13.2956 24.5259 15.8224 24.2334 18.3278C24.0206 20.151 22.5562 21.5802 20.7411 21.7831C17.5899 22.1318 14.4099 22.1318 11.2588 21.7831C9.44455 21.5802 7.97928 20.151 7.76648 18.3278C7.39327 15.1316 7.39327 11.9028 7.76648 8.7066C7.97928 6.88336 9.44364 5.45416 11.2588 5.25128C13.6505 4.98712 16.0601 4.92288 18.4625 5.05921C18.4969 5.06168 18.5298 5.07395 18.5574 5.09457C18.5851 5.11519 18.6062 5.14329 18.6183 5.17555C18.6305 5.20781 18.6331 5.24288 18.626 5.27659C18.6188 5.31031 18.6021 5.34126 18.5779 5.36579L17.6825 6.26028C17.6475 6.29531 17.6057 6.32275 17.5596 6.3409C17.5135 6.35905 17.4642 6.36752 17.4147 6.36578C15.41 6.29712 13.4029 6.37396 11.4094 6.59571C10.8268 6.66019 10.283 6.91918 9.86578 7.33083C9.44857 7.74248 9.18231 8.28276 9.11002 8.8644C8.7483 11.9557 8.7483 15.0787 9.11002 18.17C9.18231 18.7516 9.44857 19.2919 9.86578 19.7035C10.283 20.1152 10.8268 20.3742 11.4094 20.4387C14.4346 20.7768 17.5653 20.7768 20.5914 20.4387C21.1739 20.3742 21.7178 20.1152 22.135 19.7035C22.5522 19.2919 22.8175 18.7516 22.8898 18.17Z" fill="white"/>
</svg>
