<svg width="22" height="23" viewBox="0 0 22 23" fill="none" xmlns="http://www.w3.org/2000/svg">
<path d="M18.2416 3.82416H3.64831C2.73624 3.82416 1.82416 4.64503 1.82416 5.64831V8.39367C1.82416 9.05036 2.21635 9.61585 2.73624 9.93508V20.2416C2.73624 21.2448 3.73952 22.0657 4.56039 22.0657H17.3295C18.1503 22.0657 19.1536 21.2448 19.1536 20.2416V9.93508C19.6735 9.61585 20.0657 9.05036 20.0657 8.39367V5.64831C20.0657 4.64503 19.1536 3.82416 18.2416 3.82416ZM12.7691 14.7691H9.12078C8.61914 14.7691 8.2087 14.3587 8.2087 13.857C8.2087 13.3554 8.61914 12.9449 9.12078 12.9449H12.7691C13.2707 12.9449 13.6812 13.3554 13.6812 13.857C13.6812 14.3587 13.2707 14.7691 12.7691 14.7691ZM18.2416 8.38455H3.64831V5.64831H18.2416V8.38455Z" fill="black"/>
</svg>
