<svg width="24" height="24" viewBox="0 0 24 24" fill="none" xmlns="http://www.w3.org/2000/svg">
<path d="M17.28 10.8H10.32C9.65758 10.8 9.59998 11.3364 9.59998 12C9.59998 12.6636 9.65758 13.2 10.32 13.2H17.28C17.9424 13.2 18 12.6636 18 12C18 11.3364 17.9424 10.8 17.28 10.8ZM19.68 16.8H10.32C9.65758 16.8 9.59998 17.3364 9.59998 18C9.59998 18.6636 9.65758 19.2 10.32 19.2H19.68C20.3424 19.2 20.4 18.6636 20.4 18C20.4 17.3364 20.3424 16.8 19.68 16.8ZM10.32 7.19999H19.68C20.3424 7.19999 20.4 6.66359 20.4 5.99999C20.4 5.33639 20.3424 4.79999 19.68 4.79999H10.32C9.65758 4.79999 9.59998 5.33639 9.59998 5.99999C9.59998 6.66359 9.65758 7.19999 10.32 7.19999ZM6.47998 10.8H4.31998C3.65758 10.8 3.59998 11.3364 3.59998 12C3.59998 12.6636 3.65758 13.2 4.31998 13.2H6.47998C7.14238 13.2 7.19998 12.6636 7.19998 12C7.19998 11.3364 7.14238 10.8 6.47998 10.8ZM6.47998 16.8H4.31998C3.65758 16.8 3.59998 17.3364 3.59998 18C3.59998 18.6636 3.65758 19.2 4.31998 19.2H6.47998C7.14238 19.2 7.19998 18.6636 7.19998 18C7.19998 17.3364 7.14238 16.8 6.47998 16.8ZM6.47998 4.79999H4.31998C3.65758 4.79999 3.59998 5.33639 3.59998 5.99999C3.59998 6.66359 3.65758 7.19999 4.31998 7.19999H6.47998C7.14238 7.19999 7.19998 6.66359 7.19998 5.99999C7.19998 5.33639 7.14238 4.79999 6.47998 4.79999Z" fill="black"/>
</svg>
