<svg width="38" height="38" viewBox="0 0 38 38" fill="none" xmlns="http://www.w3.org/2000/svg">
<path d="M18.9999 6.36499C20.6329 6.36499 22.199 7.01369 23.3537 8.16839C24.5084 9.32308 25.1571 10.8892 25.1571 12.5222C25.1571 14.1552 24.5084 15.7213 23.3537 16.8759C22.199 18.0306 20.6329 18.6793 18.9999 18.6793C17.3669 18.6793 15.8008 18.0306 14.6461 16.8759C13.4914 15.7213 12.8427 14.1552 12.8427 12.5222C12.8427 10.8892 13.4914 9.32308 14.6461 8.16839C15.8008 7.01369 17.3669 6.36499 18.9999 6.36499ZM18.9999 21.7579C25.8036 21.7579 31.3143 24.5133 31.3143 27.9151V30.9937H6.68555V27.9151C6.68555 24.5133 12.1962 21.7579 18.9999 21.7579Z" fill="black"/>
</svg>
