<svg width="36" height="36" viewBox="0 0 36 36" fill="none" xmlns="http://www.w3.org/2000/svg">
<path d="M31.65 18.75L33.75 20.865L23.955 30.75L18.75 25.5L20.85 23.385L23.955 26.505L31.65 18.75ZM15 25.5L19.5 30H4.5V27C4.5 23.685 9.87 21 16.5 21L19.335 21.165L15 25.5ZM16.5 6C18.0913 6 19.6174 6.63214 20.7426 7.75736C21.8679 8.88258 22.5 10.4087 22.5 12C22.5 13.5913 21.8679 15.1174 20.7426 16.2426C19.6174 17.3679 18.0913 18 16.5 18C14.9087 18 13.3826 17.3679 12.2574 16.2426C11.1321 15.1174 10.5 13.5913 10.5 12C10.5 10.4087 11.1321 8.88258 12.2574 7.75736C13.3826 6.63214 14.9087 6 16.5 6Z" fill="black"/>
</svg>
