<svg width="34" height="34" viewBox="0 0 34 34" fill="none" xmlns="http://www.w3.org/2000/svg">
<path d="M8.79072 27.9948V14.3122H25.2099V18.5401C25.6614 18.4717 26.1129 18.4169 26.5781 18.4169C27.0433 18.4169 27.4949 18.4717 27.9464 18.5401V14.3122C27.9464 13.5864 27.6581 12.8903 27.1449 12.3771C26.6317 11.8639 25.9356 11.5756 25.2099 11.5756H23.8416V8.83911C23.8416 5.06271 20.7767 1.9978 17.0003 1.9978C13.2239 1.9978 10.159 5.06271 10.159 8.83911V11.5756H8.79072C7.27195 11.5756 6.0542 12.7934 6.0542 14.3122V27.9948C6.0542 28.7205 6.34251 29.4166 6.85571 29.9298C7.36891 30.443 8.06495 30.7313 8.79072 30.7313H19.4768C18.998 29.8967 18.6696 28.9799 18.4917 27.9948H8.79072ZM12.8955 8.83911C12.8955 6.5678 14.729 4.73433 17.0003 4.73433C19.2716 4.73433 21.1051 6.5678 21.1051 8.83911V11.5756H12.8955V8.83911ZM19.7368 21.1535C19.7368 22.6722 18.5191 23.89 17.0003 23.89C16.2745 23.89 15.5785 23.6017 15.0653 23.0885C14.5521 22.5753 14.2638 21.8792 14.2638 21.1535C14.2638 19.6347 15.4815 18.4169 17.0003 18.4169C17.7261 18.4169 18.4221 18.7053 18.9353 19.2185C19.4485 19.7316 19.7368 20.4277 19.7368 21.1535ZM32.0512 25.2582V27.9948H27.9464V32.0996H25.2099V27.9948H21.1051V25.2582H25.2099V21.1535H27.9464V25.2582H32.0512Z" fill="black"/>
</svg>
