<svg width="105" height="105" viewBox="0 0 105 105" fill="none" xmlns="http://www.w3.org/2000/svg">
<path d="M40.6612 39.865L46.5106 51.5659L34.6741 57.4853L10.9375 49.5731L16.8131 31.9419L40.6612 39.865ZM64.3409 39.9722L58.4894 51.6731L70.3259 57.5925L94.0625 49.6781L88.1869 32.0469L64.3409 39.9722ZM35.4922 60.3816L48.2781 57.6056L51.0847 70.5403L37.5462 91.5819L21.9188 81.5259L35.4922 60.3816ZM43.2906 38.5L52.5416 47.7509L61.8997 38.3928V13.3722H43.3169L43.2906 38.5ZM69.5931 60.4275L56.8072 57.6538L54.0006 70.5863L67.5391 91.63L83.1666 81.5741L69.5931 60.4275Z" stroke="#C3A984" stroke-width="0.5" stroke-linecap="round" stroke-linejoin="round"/>
</svg>
