<svg width="42" height="42" viewBox="0 0 42 42" fill="none" xmlns="http://www.w3.org/2000/svg">
<path d="M36.1003 27.9981C35.9641 27.834 35.8304 27.67 35.6992 27.5116C33.8945 25.3288 32.8027 24.0114 32.8027 17.832C32.8027 14.6327 32.0373 12.0077 30.5287 10.039C29.4164 8.58457 27.9128 7.48125 25.9309 6.66586C25.9054 6.65167 25.8826 6.63306 25.8636 6.6109C25.1508 4.22379 23.2001 2.625 21 2.625C18.7999 2.625 16.85 4.22379 16.1372 6.60844C16.1182 6.62982 16.0957 6.64785 16.0707 6.66176C11.4458 8.5657 9.19816 12.2186 9.19816 17.8295C9.19816 24.0114 8.10797 25.3288 6.30164 27.5092C6.17039 27.6675 6.03668 27.8283 5.90051 27.9956C5.54876 28.4198 5.3259 28.9359 5.2583 29.4828C5.1907 30.0297 5.28119 30.5846 5.51906 31.0816C6.0252 32.148 7.10391 32.81 8.3352 32.81H33.6738C34.8994 32.81 35.9707 32.1489 36.4785 31.0874C36.7174 30.5902 36.8087 30.0349 36.7417 29.4874C36.6747 28.9398 36.4521 28.423 36.1003 27.9981ZM21 39.375C22.1854 39.374 23.3484 39.0523 24.3657 38.4438C25.383 37.8354 26.2167 36.9629 26.7783 35.919C26.8047 35.869 26.8178 35.813 26.8162 35.7564C26.8146 35.6998 26.7984 35.6446 26.7692 35.5962C26.74 35.5477 26.6987 35.5076 26.6494 35.4798C26.6001 35.452 26.5445 35.4374 26.4879 35.4375H15.5138C15.4571 35.4373 15.4013 35.4518 15.3519 35.4795C15.3025 35.5073 15.2611 35.5473 15.2318 35.5958C15.2025 35.6443 15.1862 35.6996 15.1846 35.7562C15.183 35.8128 15.196 35.8689 15.2225 35.919C15.7841 36.9628 16.6176 37.8352 17.6348 38.4436C18.6519 39.0521 19.8148 39.3739 21 39.375Z" fill="black"/>
</svg>
