<svg width="26" height="26" viewBox="0 0 26 26" fill="none" xmlns="http://www.w3.org/2000/svg">
<path fill-rule="evenodd" clip-rule="evenodd" d="M5.94401 4.8799C5.32045 5.50346 5.32045 6.50584 5.32045 8.51271V18.0895C5.32045 20.0964 5.32045 21.0988 5.94401 21.7223C6.56756 22.3459 7.56994 22.3459 9.57681 22.3459H15.9614C17.9682 22.3459 18.9706 22.3459 19.5942 21.7223C20.2177 21.0988 20.2177 20.0964 20.2177 18.0895V8.51271C20.2177 6.50584 20.2177 5.50346 19.5942 4.8799C18.9706 4.25635 17.9682 4.25635 15.9614 4.25635H9.57681C7.56994 4.25635 6.56756 4.25635 5.94401 4.8799ZM9.57681 8.51271C9.2946 8.51271 9.02394 8.62482 8.82439 8.82438C8.62483 9.02393 8.51272 9.29459 8.51272 9.5768C8.51272 9.85901 8.62483 10.1297 8.82439 10.3292C9.02394 10.5288 9.2946 10.6409 9.57681 10.6409H15.9614C16.2436 10.6409 16.5142 10.5288 16.7138 10.3292C16.9133 10.1297 17.0254 9.85901 17.0254 9.5768C17.0254 9.29459 16.9133 9.02393 16.7138 8.82438C16.5142 8.62482 16.2436 8.51271 15.9614 8.51271H9.57681ZM9.57681 12.7691C9.2946 12.7691 9.02394 12.8812 8.82439 13.0807C8.62483 13.2803 8.51272 13.5509 8.51272 13.8332C8.51272 14.1154 8.62483 14.386 8.82439 14.5856C9.02394 14.7851 9.2946 14.8973 9.57681 14.8973H15.9614C16.2436 14.8973 16.5142 14.7851 16.7138 14.5856C16.9133 14.386 17.0254 14.1154 17.0254 13.8332C17.0254 13.5509 16.9133 13.2803 16.7138 13.0807C16.5142 12.8812 16.2436 12.7691 15.9614 12.7691H9.57681ZM9.57681 17.0254C9.2946 17.0254 9.02394 17.1375 8.82439 17.3371C8.62483 17.5367 8.51272 17.8073 8.51272 18.0895C8.51272 18.3717 8.62483 18.6424 8.82439 18.842C9.02394 19.0415 9.2946 19.1536 9.57681 19.1536H13.8332C14.1154 19.1536 14.386 19.0415 14.5856 18.842C14.7852 18.6424 14.8973 18.3717 14.8973 18.0895C14.8973 17.8073 14.7852 17.5367 14.5856 17.3371C14.386 17.1375 14.1154 17.0254 13.8332 17.0254H9.57681Z" fill="black"/>
</svg>
