<svg width="22" height="22" viewBox="0 0 22 22" fill="none" xmlns="http://www.w3.org/2000/svg">
<path fill-rule="evenodd" clip-rule="evenodd" d="M0.342029 0.641711H6.84058C7.02949 0.641711 7.18261 0.794833 7.18261 0.98374V7.48229C7.18261 7.6712 7.02949 7.82432 6.84058 7.82432H0.342029C0.153122 7.82432 0 7.6712 0 7.48229V0.98374C0 0.794833 0.153122 0.641711 0.342029 0.641711ZM12.4053 0.100172L16.2749 3.9698C16.4084 4.10337 16.4084 4.31991 16.2749 4.4535L12.4052 8.32311C12.2717 8.45667 12.0551 8.45667 11.9216 8.32311L8.05194 4.45347C7.91838 4.31991 7.91838 4.10337 8.05194 3.96978L11.9216 0.100172C12.0551 -0.0333906 12.2717 -0.0333906 12.4053 0.100172ZM0.342029 9.19244H6.84058C7.02949 9.19244 7.18261 9.34556 7.18261 9.53447V16.033C7.18261 16.2219 7.02949 16.375 6.84058 16.375H0.342029C0.153122 16.375 0 16.2219 0 16.033V9.53447C0 9.34556 0.153122 9.19244 0.342029 9.19244ZM8.89276 9.19244H15.3913C15.5802 9.19244 15.7333 9.34556 15.7333 9.53447V16.033C15.7333 16.2219 15.5802 16.375 15.3913 16.375H8.89276C8.70385 16.375 8.55073 16.2219 8.55073 16.033V9.53447C8.55073 9.34556 8.70385 9.19244 8.89276 9.19244Z" fill="black"/>
</svg>
