<svg width="34" height="34" viewBox="0 0 34 34" fill="none" xmlns="http://www.w3.org/2000/svg">
<path d="M19.7368 21.3383C19.7368 22.857 18.5191 24.0748 17.0003 24.0748C16.2745 24.0748 15.5785 23.7865 15.0653 23.2733C14.5521 22.7601 14.2638 22.0641 14.2638 21.3383C14.2638 19.8195 15.4815 18.6018 17.0003 18.6018C17.7261 18.6018 18.4221 18.8901 18.9353 19.4033C19.4485 19.9165 19.7368 20.6125 19.7368 21.3383ZM18.4917 28.1796C18.6559 29.1647 18.998 30.0815 19.4768 30.9161H8.79072C8.06495 30.9161 7.36891 30.6278 6.85571 30.1146C6.34251 29.6014 6.0542 28.9054 6.0542 28.1796V14.497C6.0542 12.9782 7.27195 11.7604 8.79072 11.7604H10.159V9.02392C10.159 5.24752 13.2239 2.18262 17.0003 2.18262C20.7767 2.18262 23.8416 5.24752 23.8416 9.02392V11.7604H25.2099C25.9356 11.7604 26.6317 12.0488 27.1449 12.562C27.6581 13.0752 27.9464 13.7712 27.9464 14.497V18.7249C27.4949 18.6565 27.0433 18.6018 26.5781 18.6018C26.1129 18.6018 25.6614 18.6565 25.2099 18.7249V14.497H8.79072V28.1796H18.4917ZM12.8955 11.7604H21.1051V9.02392C21.1051 6.75261 19.2716 4.91914 17.0003 4.91914C14.729 4.91914 12.8955 6.75261 12.8955 9.02392V11.7604ZM29.7799 22.4876L24.8678 27.3997L22.6923 25.2241L21.1051 26.8113L24.8678 30.9161L31.367 24.4169L29.7799 22.4876Z" fill="black"/>
</svg>
