<svg width="44" height="44" viewBox="0 0 44 44" fill="none" xmlns="http://www.w3.org/2000/svg">
<path d="M27.3874 25.1393C22.5925 25.1393 13.0207 27.5278 13.0207 32.3227V35.9144H41.7542V32.3227C41.7542 27.5278 32.1823 25.1393 27.3874 25.1393ZM11.2248 17.956V12.5684H7.63314V17.956H2.24561V21.5477H7.63314V26.9352H11.2248V21.5477H16.6124V17.956M27.3874 21.5477C29.2926 21.5477 31.1197 20.7908 32.4668 19.4437C33.814 18.0965 34.5708 16.2694 34.5708 14.3643C34.5708 12.4591 33.814 10.632 32.4668 9.28487C31.1197 7.93773 29.2926 7.18091 27.3874 7.18091C25.4823 7.18091 23.6551 7.93773 22.308 9.28487C20.9609 10.632 20.204 12.4591 20.204 14.3643C20.204 16.2694 20.9609 18.0965 22.308 19.4437C23.6551 20.7908 25.4823 21.5477 27.3874 21.5477Z" fill="black"/>
</svg>
