<svg width="26" height="26" viewBox="0 0 26 26" fill="none" xmlns="http://www.w3.org/2000/svg">
<path fill-rule="evenodd" clip-rule="evenodd" d="M21.4808 0.72228C21.9906 0.536527 22.5428 0.500147 23.0725 0.617415C23.6022 0.734683 24.0875 1.00073 24.4712 1.38428C24.855 1.76783 25.1212 2.25295 25.2388 2.78262C25.3563 3.3123 25.3202 3.86451 25.1347 4.37437L18.8473 23.2188C18.6943 23.6819 18.4251 24.098 18.0653 24.4273C17.7056 24.7565 17.2674 24.988 16.7926 25.0994C16.3189 25.2146 15.8234 25.2048 15.3547 25.071C14.886 24.9371 14.46 24.6838 14.1186 24.3359L10.7445 20.9776L7.20145 22.8107C7.06563 22.8811 6.9138 22.9149 6.76094 22.9087C6.60807 22.9025 6.45947 22.8566 6.32979 22.7754C6.20012 22.6942 6.09386 22.5806 6.02151 22.4458C5.94916 22.311 5.91322 22.1597 5.91724 22.0068L6.06325 16.4055L18.4568 7.4037C18.5737 7.3188 18.6727 7.2117 18.7482 7.08853C18.8237 6.96536 18.8742 6.82852 18.8968 6.68583C18.9195 6.54314 18.9138 6.39739 18.8801 6.2569C18.8464 6.11641 18.7853 5.98394 18.7004 5.86704C18.6155 5.75014 18.5084 5.65112 18.3853 5.57561C18.2621 5.5001 18.1252 5.44959 17.9825 5.42697C17.8399 5.40434 17.6941 5.41004 17.5536 5.44375C17.4131 5.47745 17.2807 5.53849 17.1638 5.62339L4.5609 14.7782L1.51749 11.7348C1.1895 11.4067 0.94768 11.0027 0.813557 10.5586C0.679434 10.1145 0.657163 9.64407 0.748725 9.18928C0.840633 8.69226 1.06307 8.22863 1.39322 7.84592C1.72338 7.46321 2.14938 7.17519 2.62754 7.0114H2.63458L21.4808 0.72228Z" fill="black"/>
</svg>
