<svg width="32" height="32" viewBox="0 0 32 32" fill="none" xmlns="http://www.w3.org/2000/svg">
<path d="M26.8012 4.7C25.3544 3.20987 23.6337 2.02742 21.7382 1.22077C19.8427 0.414123 17.81 -0.000769598 15.7572 1.07168e-06C7.11741 1.07168e-06 0.13916 7.16 0.13916 16C0.13916 24.84 7.11741 32 15.7572 32C23.0482 32 29.1273 26.9 30.8669 20H26.8012C25.996 22.339 24.5012 24.3648 22.523 25.7977C20.5449 27.2306 18.1809 28.0001 15.7572 28C9.28712 28 4.029 22.62 4.029 16C4.029 9.38 9.28712 4 15.7572 4C19.0019 4 21.8949 5.38 24.006 7.56L17.7118 14H31.3947V1.07168e-06L26.8012 4.7Z" fill="black"/>
</svg>
