<svg width="49" height="48" viewBox="0 0 49 48" fill="none" xmlns="http://www.w3.org/2000/svg">
<path d="M24.3026 43.7722C19.722 42.6189 15.9403 39.9905 12.9573 35.8871C9.97437 31.7837 8.48355 27.2282 8.48486 22.2206V10.1596L24.3026 4.22791L40.1203 10.1596V22.2206C40.1203 27.2295 38.6295 31.7857 35.6479 35.8891C32.6662 39.9925 28.8845 42.6202 24.3026 43.7722ZM24.3026 39.6201C27.7298 38.5326 30.5638 36.3577 32.8046 33.0953C35.0455 29.8329 36.1659 26.208 36.1659 22.2206V12.8782L24.3026 8.42949L12.4393 12.8782V22.2206C12.4393 26.208 13.5597 29.8329 15.8006 33.0953C18.0414 36.3577 20.8754 38.5326 24.3026 39.6201Z" fill="black"/>
</svg>
