<svg width="42" height="42" viewBox="0 0 42 42" fill="none" xmlns="http://www.w3.org/2000/svg">
<path d="M23.2638 0C23.8812 0 24.4335 0.3843 24.6414 0.9597L26.124 5.0694C26.6546 5.201 27.1124 5.3354 27.4974 5.4726C27.9174 5.6224 28.4634 5.8534 29.1354 6.1656L32.5878 4.3386C32.8694 4.18862 33.1922 4.13435 33.5074 4.18397C33.8226 4.2336 34.1131 4.38444 34.335 4.6137L37.3716 7.7532C37.7748 8.1711 37.8882 8.7822 37.6614 9.3156L36.0423 13.1103C36.3097 13.6031 36.5253 14.0259 36.6891 14.3787C36.8655 14.7609 37.0839 15.2929 37.3443 15.9747L41.118 17.5917C41.685 17.8332 42.0357 18.4002 41.9979 19.0071L41.7207 23.3646C41.7017 23.6477 41.6001 23.919 41.4284 24.1448C41.2566 24.3707 41.0224 24.5412 40.7547 24.6351L37.1805 25.9056C37.0783 26.3984 36.9705 26.8226 36.8571 27.1782C36.6736 27.7293 36.4647 28.2717 36.2313 28.8036L38.0268 32.7726C38.1545 33.0513 38.1892 33.3637 38.1256 33.6636C38.0621 33.9635 37.9037 34.235 37.674 34.4379L34.2594 37.4871C34.0349 37.6879 33.7543 37.8149 33.4553 37.8509C33.1563 37.887 32.8535 37.8304 32.5878 37.6887L29.0682 35.8239C28.5181 36.1166 27.9499 36.374 27.3672 36.5946L25.83 37.17L24.465 40.95C24.3628 41.2262 24.1801 41.4653 23.9405 41.6364C23.7009 41.8075 23.4153 41.9027 23.121 41.9097L19.131 42C18.8287 42.007 18.5316 41.9206 18.2802 41.7527C18.0288 41.5847 17.8353 41.3433 17.7261 41.0613L16.1175 36.8046C15.5688 36.6166 15.0254 36.4136 14.4879 36.1956C14.0484 36.0054 13.6155 35.8001 13.1901 35.5803L9.20008 37.2855C8.93727 37.3982 8.64731 37.4318 8.36569 37.3822C8.08408 37.3326 7.82305 37.2019 7.61458 37.0062L4.66198 34.2363C4.44133 34.0315 4.29105 33.7622 4.23259 33.4669C4.17413 33.1716 4.21049 32.8654 4.33648 32.592L6.05218 28.854C5.82481 28.4109 5.61327 27.9598 5.41798 27.5016C5.19049 26.9405 4.98039 26.3725 4.78798 25.7985L1.02898 24.654C0.72343 24.5616 0.456926 24.371 0.270857 24.1116C0.0847871 23.8523 -0.0104352 23.5387 -2.17719e-05 23.2197L0.146978 19.1856C0.157898 18.9225 0.240306 18.6674 0.385345 18.4476C0.530384 18.2278 0.732571 18.0517 0.970178 17.9382L4.91398 16.044C5.09598 15.3748 5.25698 14.8512 5.39698 14.4732C5.59512 13.9655 5.81512 13.4667 6.05638 12.978L4.34698 9.366C4.21627 9.09191 4.17634 8.78328 4.23298 8.48495C4.28963 8.18662 4.4399 7.91411 4.66198 7.707L7.61038 4.9224C7.81679 4.727 8.07542 4.59563 8.35495 4.5442C8.63449 4.49276 8.92294 4.52347 9.18538 4.6326L13.1712 6.279C13.6108 5.9864 14.0112 5.7456 14.3724 5.5566C14.8022 5.3298 15.379 5.0876 16.1028 4.83L17.4888 0.9639C17.5923 0.681643 17.7798 0.437908 18.0262 0.265554C18.2725 0.0932012 18.5657 0.00051788 18.8664 0L23.2638 0ZM21.0504 14.7399C17.5497 14.7399 14.7126 17.5434 14.7126 21.0042C14.7126 24.465 17.5497 27.2706 21.0504 27.2706C24.5511 27.2706 27.3861 24.465 27.3861 21.0042C27.3861 17.5434 24.5511 14.7399 21.0504 14.7399Z" fill="black"/>
</svg>
