<svg width="48" height="48" viewBox="0 0 48 48" fill="none" xmlns="http://www.w3.org/2000/svg">
<path d="M5.69434 35.9602C8.41561 23.9205 14.2294 12.7985 22.562 3.69204C22.7101 3.53084 22.8901 3.40216 23.0906 3.31414C23.2911 3.22611 23.5076 3.18066 23.7265 3.18066C23.9455 3.18066 24.162 3.22611 24.3625 3.31414C24.563 3.40216 24.743 3.53084 24.8911 3.69204C25.2207 4.04794 25.4922 4.34847 25.7057 4.59365C33.608 13.5337 39.1291 24.3216 41.7588 35.9602C37.4692 36.8641 33.1175 37.4424 28.7408 37.6903L24.6104 45.9471C24.5282 46.1111 24.402 46.249 24.2459 46.3454C24.0898 46.4417 23.91 46.4928 23.7265 46.4928C23.5431 46.4928 23.3633 46.4417 23.2072 46.3454C23.0511 46.249 22.9249 46.1111 22.8427 45.9471L18.7123 37.6883C14.3356 37.4404 9.98388 36.8641 5.69434 35.9602ZM23.7265 29.9218C25.2997 29.9218 26.8085 29.2969 27.9209 28.1845C29.0333 27.0721 29.6582 25.5633 29.6582 23.9901C29.6582 22.417 29.0333 20.9082 27.9209 19.7958C26.8085 18.6834 25.2997 18.0585 23.7265 18.0585C22.1534 18.0585 20.6446 18.6834 19.5322 19.7958C18.4198 20.9082 17.7949 22.417 17.7949 23.9901C17.7949 25.5633 18.4198 27.0721 19.5322 28.1845C20.6446 29.2969 22.1534 29.9218 23.7265 29.9218Z" fill="black"/>
</svg>
