<svg width="30" height="30" viewBox="0 0 30 30" fill="none" xmlns="http://www.w3.org/2000/svg">
<path d="M10 3.3125H20C21.7736 3.3125 23.4744 4.01734 24.7285 5.27148C25.9827 6.52563 26.6875 8.22636 26.6875 10V20C26.6875 21.7736 25.9827 23.4744 24.7285 24.7285C23.4744 25.9827 21.7736 26.6875 20 26.6875H10C8.22636 26.6875 6.52563 25.9827 5.27148 24.7285C4.01734 23.4744 3.3125 21.7736 3.3125 20V10C3.3125 8.22636 4.01733 6.52563 5.27148 5.27148C6.52563 4.01733 8.22636 3.3125 10 3.3125ZM16.9932 6.27148C16.7014 6.09538 16.3559 6.02844 16.0195 6.08301C15.6832 6.13762 15.3773 6.31011 15.1562 6.56934C14.9351 6.82864 14.8133 7.15823 14.8125 7.49902V18.75C14.8125 19.2074 14.677 19.6549 14.4229 20.0352C14.1688 20.4153 13.8072 20.7117 13.3848 20.8867C12.9623 21.0617 12.4973 21.1068 12.0488 21.0176C11.6003 20.9283 11.1886 20.7081 10.8652 20.3848C10.5418 20.0614 10.3207 19.6498 10.2314 19.2012C10.1423 18.7527 10.1883 18.2877 10.3633 17.8652C10.5383 17.4428 10.8347 17.0812 11.2148 16.8271C11.5951 16.573 12.0426 16.4375 12.5 16.4375C12.8812 16.4375 13.247 16.2862 13.5166 16.0166C13.7862 15.747 13.9375 15.3812 13.9375 15C13.9375 14.6188 13.7862 14.253 13.5166 13.9834C13.247 13.7138 12.8812 13.5625 12.5 13.5625C11.4741 13.5625 10.4712 13.8666 9.61816 14.4365C8.76509 15.0065 8.09966 15.8168 7.70703 16.7646C7.31444 17.7124 7.21203 18.7555 7.41211 19.7617C7.61227 20.768 8.10655 21.6925 8.83203 22.418C9.55752 23.1435 10.482 23.6377 11.4883 23.8379C12.4945 24.038 13.5376 23.9356 14.4854 23.543C15.4332 23.1503 16.2435 22.4849 16.8135 21.6318C17.3834 20.7788 17.6875 19.7759 17.6875 18.75V11.6045C18.6275 12.2369 19.8142 12.6875 21.25 12.6875C21.6312 12.6875 21.997 12.5362 22.2666 12.2666C22.5362 11.997 22.6875 11.6312 22.6875 11.25C22.6875 10.8688 22.5362 10.503 22.2666 10.2334C21.997 9.96382 21.6312 9.8125 21.25 9.8125C20.3202 9.8125 19.5871 9.48135 19.0088 9.01074L18.7705 8.80078C18.136 8.19787 17.7551 7.46921 17.6133 7.04492H17.6123C17.5039 6.72196 17.2848 6.44759 16.9932 6.27148Z" fill="black" stroke="#FAFAFA"/>
</svg>
