<svg width="24" height="24" viewBox="0 0 24 24" fill="none" xmlns="http://www.w3.org/2000/svg">
<path d="M6 7.5C6 6.04131 6.57946 4.64236 7.61091 3.61091C8.64236 2.57946 10.0413 2 11.5 2C12.9587 2 14.3576 2.57946 15.3891 3.61091C16.4205 4.64236 17 6.04131 17 7.5C17 8.95869 16.4205 10.3576 15.3891 11.3891C14.3576 12.4205 12.9587 13 11.5 13C10.0413 13 8.64236 12.4205 7.61091 11.3891C6.57946 10.3576 6 8.95869 6 7.5ZM11.75 22H2V20C2 18.4087 2.63214 16.8826 3.75736 15.7574C4.88258 14.6321 6.4087 14 8 14H11.75V22ZM13.75 14H22.25V16H13.75V14ZM13.75 17H22.25V19H13.75V17ZM13.75 20H22.25V22H13.75V20Z" fill="black"/>
</svg>
