<svg width="22" height="22" viewBox="0 0 22 22" fill="none" xmlns="http://www.w3.org/2000/svg">
<path d="M10.9449 3.64832C11.9125 3.64832 12.8405 4.03269 13.5247 4.71688C14.2089 5.40107 14.5932 6.32903 14.5932 7.29663C14.5932 8.26422 14.2089 9.19218 13.5247 9.87637C12.8405 10.5606 11.9125 10.9449 10.9449 10.9449C9.97734 10.9449 9.04938 10.5606 8.36519 9.87637C7.681 9.19218 7.29663 8.26422 7.29663 7.29663C7.29663 6.32903 7.681 5.40107 8.36519 4.71688C9.04938 4.03269 9.97734 3.64832 10.9449 3.64832ZM10.9449 12.7691C14.9763 12.7691 18.2416 14.4017 18.2416 16.4174V18.2416H3.64832V16.4174C3.64832 14.4017 6.91355 12.7691 10.9449 12.7691Z" fill="black"/>
</svg>
